<svg width="64" height="64" viewBox="0 0 64 64" fill="none" xmlns="http://www.w3.org/2000/svg">
  <path d="M52.48 32.68C52.48 31.02 52.34 29.8 52.02 28.54H32V36.28H43.74C43.5 38.2 42.18 41.1 39.26 43.04L39.22 43.3L45.53 48.09L45.97 48.13C49.98 44.52 52.48 39.22 52.48 32.68Z" fill="#4285F4"/>
  <path d="M31.9999 53.12C37.7599 53.12 42.5999 51.26 45.9599 48.12L39.2599 43.04C37.4599 44.26 35.0399 45.12 31.9999 45.12C26.3599 45.12 21.5799 41.5 19.8799 36.5L19.6299 36.52L13.0699 41.5L12.9799 41.74C16.3199 48.24 23.6199 53.12 31.9999 53.12Z" fill="#34A853"/>
  <path d="M19.8798 36.5C19.4398 35.24 19.1798 33.9 19.1798 32.5C19.1798 31.1 19.4398 29.76 19.8598 28.5L19.8478 28.22L13.2058 23.16L12.9878 23.26C11.6078 25.96 10.8198 29.06 10.8198 32.5C10.8198 35.94 11.6078 39.04 12.9878 41.74L19.8798 36.5Z" fill="#FBBC05"/>
  <path d="M31.9999 19.88C35.8399 19.88 38.4399 21.5 39.9199 22.86L46.0999 16.96C42.5799 13.76 37.7599 11.88 31.9999 11.88C23.6199 11.88 16.3199 16.76 12.9799 23.26L19.8599 28.5C21.5799 23.5 26.3599 19.88 31.9999 19.88Z" fill="#EA4335"/>
</svg>
