<svg xmlns="http://www.w3.org/2000/svg" viewBox="0 0 2048 2048" fill="none" aria-hidden="true">
  <rect x="48" y="48" width="1952" height="1952" rx="320" fill="#050506"/>
  <g transform="translate(-96 -96) scale(1.1)">
<path transform="translate(0,0)" fill="#fff" d="M 620.71 529.766 C 625.878 533.426 637.78 546.516 642.561 551.575 C 656.625 566.737 670.834 581.762 685.187 596.65 L 844.712 758.748 C 822.493 789.975 808.171 814.93 796.579 851.967 C 771.002 933.881 779.09 1022.61 819.055 1098.55 C 854.914 1166.46 924.562 1222.56 998.047 1243.26 C 1096.37 1270.95 1181.29 1257.92 1269.39 1210.63 C 1268.57 1227.6 1268.7 1245.08 1269.57 1262.05 C 1275.45 1376.38 1379.52 1464.65 1493.37 1455.11 C 1447.04 1513.82 1354.6 1578.79 1287.26 1609.91 C 1272.27 1586.47 1256.2 1562.69 1241.54 1539.3 C 1213.34 1547.65 1181.65 1556.37 1152.15 1558.45 C 1152.77 1576.82 1153.06 1595.19 1153.04 1613.57 C 1168.08 1609.6 1185.19 1607.66 1202.24 1603.08 C 1206.74 1613.66 1210.88 1625.54 1215.13 1636.38 C 1171.63 1650.55 1139.59 1655.77 1094.96 1661.34 C 1094.29 1607.31 1094.02 1553.26 1094.13 1499.22 C 1144.56 1499.1 1210.45 1485.72 1257.5 1467.52 C 1277.15 1488.71 1299.29 1507.47 1321.43 1525.96 C 1337.33 1516.45 1352.77 1506.2 1367.7 1495.24 C 1321.45 1473.24 1285.06 1448.56 1254.14 1406.77 C 1193.88 1430.33 1135.45 1440.53 1070.58 1440.05 C 1060.58 1439.97 1041.24 1439.87 1031.63 1438.22 C 1033.93 1512.88 1030.33 1591.65 1032.74 1666.05 C 1011.57 1666.39 991.907 1666.35 970.779 1663.97 C 969.802 1592.57 969.265 1521.16 969.168 1449.75 L 969.054 1300.66 C 944.855 1291.86 930.228 1285.51 907.098 1274.15 C 908.967 1399.52 909.118 1530.04 908.886 1655.49 C 891.452 1653.94 862.685 1646.19 845.74 1641.49 L 844.845 1368.52 C 844.659 1324.19 843.244 1275.65 844.714 1231.72 C 829.075 1217.77 794.316 1182.32 783.101 1164.96 C 784.462 1210.23 783.164 1262.46 783.183 1308.25 L 783.972 1620.3 C 761.244 1609.14 744.24 1602.17 721.039 1589.48 L 720 953.02 C 687.265 950.647 638.48 952.147 604.192 952.129 L 392.807 951.951 C 394.033 933.962 396.772 907.08 400.543 889.704 C 431.249 890.797 467.97 889.902 498.941 889.906 L 724.696 890.036 C 725.612 875.298 733.091 842.646 738.34 829.042 L 418.029 828.232 C 421.364 810.953 432.896 782.207 440.104 765.903 C 547.61 764.963 655.121 764.987 762.626 765.975 C 698.906 702.631 635.682 638.79 572.959 574.459 C 587.435 558.843 604.646 543.739 620.71 529.766 z M 1030.92 1316.12 C 1031.21 1335.41 1031.28 1354.7 1031.14 1373.99 C 1037.45 1374.39 1043.95 1374.88 1050.25 1375.03 C 1115.23 1376.6 1163.41 1372.3 1225.97 1352.57 C 1221.84 1343.19 1218.12 1333.63 1214.83 1323.92 C 1212.92 1318.26 1210.81 1310.27 1208.52 1305.15 L 1206.53 1305.17 C 1142.07 1321.45 1096.52 1324.5 1030.92 1316.12 z"/>
<path transform="translate(0,0)" fill="#fff" d="M 868.931 402.266 C 868.409 401.797 949.528 587.952 958.424 607.838 C 972.472 603.815 986.664 600.313 1000.97 597.338 C 1003.92 585.956 1006.22 573.589 1009.14 561.919 C 1015.89 534.675 1023.87 507.75 1033.06 481.229 C 1057.43 480.706 1079.01 482.844 1103.06 486.017 C 1096.36 505.501 1087.91 525.507 1081.05 545.335 C 1076.52 558.436 1069.77 580.487 1064.49 592.381 C 1087.06 593.037 1112.96 596.172 1134.72 602.44 C 1141.09 586.766 1151.56 559.208 1159.18 545.053 C 1182.21 552.384 1200.1 560.311 1221.9 570.455 C 1213.61 586.907 1203.07 605.049 1194.25 621.64 C 1207.95 628.344 1221.29 635.745 1234.24 643.814 C 1245.33 630.025 1260.59 610.687 1272.42 597.974 C 1294.29 612.235 1307.38 622.713 1326.8 639.849 C 1319.95 646.949 1289.57 674.642 1282.18 680.101 C 1293.19 690.535 1303.34 700.111 1313.65 711.203 C 1329.32 700.394 1347.79 689.492 1364.2 679.583 C 1376.22 692.622 1394.41 720.215 1402.65 736.131 C 1383.89 744.8 1365.37 753.969 1347.09 763.628 C 1352.31 774.995 1356.68 784.742 1361.16 796.418 C 1380.7 790.825 1406.08 786.487 1426.04 782.953 C 1435.64 807.084 1439.28 820.157 1444.21 845.436 C 1426.83 848.214 1393.95 856.297 1377.5 857.28 C 1379.11 867.848 1380.36 878.468 1381.25 889.12 C 1470.32 888.842 1559.95 888.355 1648.55 898.347 C 1652.83 920.975 1656.06 943.79 1658.23 966.717 C 1606.26 958.868 1553.94 953.132 1501.37 951.946 C 1460.36 951.021 1419.55 951.011 1378.54 950.957 C 1374.89 981.419 1364.06 1012.88 1350.11 1040.09 C 1314.34 1108.22 1253.26 1159.6 1180.01 1183.17 C 1113.43 1204.29 1037.27 1200.53 974.903 1168.02 C 917.145 1137.99 873.896 1085.99 854.895 1023.72 C 816.567 900.432 875.276 762.771 1003.29 724.745 C 1055.19 709.527 1110.99 715.389 1158.6 741.061 C 1195.01 761.559 1226.12 794.735 1242.23 833.433 C 1260.9 878.191 1261.08 928.526 1242.73 973.418 C 1211.33 1048.51 1119.04 1094.42 1042.01 1062.24 C 970.245 1031.98 944.742 940.907 990.984 877.9 C 1021.2 835.599 1090.95 826.207 1121.99 872.658 C 1132.32 888.121 1133.69 909.755 1125.11 926.228 C 1119.75 936.631 1110.39 944.407 1099.19 947.763 C 1075.57 954.879 1049.58 942.87 1043.15 918.286 C 1020.17 947.842 1033.37 993.613 1069.12 1005.66 C 1090.09 1012.72 1115.51 1009.66 1135.19 999.899 C 1190.22 972.592 1206.91 904.419 1179.8 851.187 C 1164.25 821.007 1137.45 798.154 1105.19 787.564 C 1068.58 775.91 1028.85 779.091 994.559 796.424 C 956.197 816.089 928.809 850.737 915.712 891.537 C 900.36 939.392 904.804 991.4 928.053 1035.96 C 950.146 1078.9 989.474 1110.09 1035.4 1124.7 C 1145.73 1159.79 1272.29 1090.6 1306.34 980.771 C 1326.09 917.057 1321.56 851.005 1290.05 791.663 C 1257.97 731.331 1203.08 686.35 1137.62 666.756 C 1067.71 645.572 991.487 656.108 927.478 690.352 C 921.496 680.158 913.431 661.759 908.42 650.802 L 879.98 588.524 C 856.019 535.915 827.079 475.639 805.808 423.033 C 825.314 415.524 848.503 406.888 868.931 402.266 z"/>
<path transform="translate(0,0)" fill="#fff" d="M 1433.79 998.258 C 1519.28 996.615 1580.28 1007.98 1659.81 1036.18 C 1658.04 1056.75 1657.21 1075.17 1654.8 1097.49 C 1644.67 1191.31 1613.92 1284.56 1560.96 1362.97 C 1550.01 1379.19 1499.74 1393.01 1480.35 1394.03 C 1438.96 1396.22 1404.36 1380.25 1373.64 1353.05 C 1315.48 1295.27 1318.15 1205.58 1363.62 1141.52 C 1368.5 1134.65 1387.01 1129.78 1395.22 1127.14 C 1459.26 1106.58 1525.37 1112.88 1584 1143.98 C 1587.22 1122.58 1590.82 1101.24 1594.8 1079.97 C 1543.26 1064.81 1494.17 1055.73 1440.03 1060.17 C 1428.12 1061.15 1415.58 1062.02 1404 1064.99 C 1417.59 1041.67 1423.76 1022.67 1433.79 998.258 z M 1488.83 1333.19 C 1533.11 1326.44 1563.51 1285.03 1556.68 1240.76 C 1549.86 1196.49 1508.4 1166.16 1464.14 1173.06 C 1419.98 1179.95 1389.74 1221.29 1396.55 1265.45 C 1403.36 1309.62 1444.65 1339.92 1488.83 1333.19 z"/>
<path transform="translate(0,0)" fill="#fff" d="M 1472.64 1223.18 C 1488.17 1221.02 1502.56 1231.7 1504.99 1247.19 C 1507.42 1262.68 1496.99 1277.25 1481.55 1279.95 C 1471.32 1281.73 1460.92 1277.86 1454.35 1269.82 C 1447.78 1261.78 1446.06 1250.82 1449.85 1241.15 C 1453.64 1231.48 1462.36 1224.61 1472.64 1223.18 z"/>
<path transform="translate(0,0)" fill="#fff" d="M 399.909 1135.15 L 563.424 1135.15 C 595.342 1135.15 629.168 1134.62 660.946 1135.55 L 660.671 1424.93 L 660.852 1507.24 C 660.883 1517.05 661.504 1540.93 660.513 1549.3 L 658.578 1550.23 C 635.116 1533.09 619.297 1519.99 597.85 1500.38 C 596.552 1465.31 597.447 1421.86 597.46 1386.25 L 597.13 1197.52 L 412.539 1196.96 C 407.496 1177.53 401.754 1155.13 399.909 1135.15 z"/>
<path transform="translate(0,0)" fill="#fff" d="M 995.903 382.5 C 1011.96 380.889 1041.91 381.827 1058.27 382.742 C 1142.16 387.429 1212.51 405.477 1289.02 439.427 C 1276.21 466.614 1261.94 493.72 1248.65 520.782 C 1225.01 508.602 1204.59 501.86 1179.36 493.351 C 1180.98 488.49 1182.75 483.914 1184.59 479.141 L 1188.64 468.345 C 1131.59 448.159 1044.4 441.727 984.593 446.102 C 983.535 457.039 972.085 502.993 968.372 514.017 C 959.522 497.038 952.049 477.642 944.594 459.828 L 915.938 391.713 C 943.599 386.386 967.827 383.91 995.903 382.5 z"/>
<path transform="translate(0,0)" fill="#fff" d="M 766.845 439.087 C 769.697 441.855 793.237 489.954 796.048 496.05 C 828.495 566.42 869.377 635.166 900.613 705.849 C 892.259 712.688 883.966 718.659 875.478 725.803 C 865.321 715.291 854.686 702.508 845.01 691.355 C 787.049 625.065 729.846 558.115 673.414 490.519 C 701.445 470.769 735.672 453.017 766.845 439.087 z"/>
<path transform="translate(0,0)" fill="#fff" d="M 389.228 1012.96 L 661.013 1012.77 L 660.712 1075.23 C 571.988 1073.53 480.35 1075.21 391.316 1074.9 C 390.196 1054.27 389.5 1033.62 389.228 1012.96 z"/>
<path transform="translate(0,0)" fill="#fff" d="M 433.259 1258.09 C 467.841 1258.8 502.432 1258.88 537.017 1258.34 C 537.043 1316.18 537.588 1374.93 536.858 1432.69 L 534.984 1432.87 C 529.964 1428.94 519.389 1413.98 515.11 1407.99 C 484.607 1365.25 450.332 1307.95 433.259 1258.09 z"/>
<path transform="translate(0,0)" fill="#fff" d="M 1595.13 748.379 C 1597.55 747.862 1597.37 747.847 1599.76 748.438 C 1608.1 757.118 1626.83 810.6 1630.01 823.932 C 1601.94 823.705 1550.28 830.217 1521.15 833.284 L 1507.25 835.207 C 1501.68 810.031 1495.39 792.664 1487.02 768.511 C 1521.33 762.126 1561.08 753.432 1595.13 748.379 z"/>
<path transform="translate(0,0)" fill="#fff" d="M 1505.72 600.773 C 1513.03 603.547 1552.87 663.005 1559.64 673.425 C 1548.58 677.898 1531.47 683.011 1519.72 687.077 C 1502.39 693.135 1485.23 699.631 1468.24 706.559 L 1459.52 709.911 C 1446.96 686.367 1432.08 670.33 1417.5 649.288 C 1443.33 632.756 1478.4 616.632 1505.72 600.773 z"/>
<path transform="translate(0,0)" fill="#fff" d="M 1365.65 481.49 C 1379.05 486.149 1428.37 525.625 1441.3 536.469 C 1422.02 555.124 1397.05 576.762 1376.68 594.615 C 1374.78 596.126 1372.03 598.76 1370.15 600.463 C 1347.44 582.1 1331.47 569.666 1307.53 552.702 C 1320.83 533.396 1349.62 501.115 1365.65 481.49 z"/>
<path transform="translate(0,0)" fill="#fff" d="M 529.686 622.526 C 536.958 628.302 544.381 635.61 551.14 642.044 C 573.174 663.016 596.086 683.491 617.476 705.1 C 602.528 706.69 573.623 705.823 557.75 705.793 C 530.403 704.422 500.824 706.921 473.607 705.219 C 489.675 675.754 509.426 649.151 529.686 622.526 z"/>
  </g>
</svg>
