<svg width="16px" height="16px" viewBox="0 0 16 16" fill="none" xmlns="http://www.w3.org/2000/svg" color="currentColor" class="shrink-0 w-4 h-4 text-[inherit] opacity-100 -ml-[3px] mr-[5px]"><path d="M13.4937 2.79004L13.0291 1.58215C12.9714 1.4322 12.8273 1.33325 12.6667 1.33325C12.506 1.33325 12.3619 1.4322 12.3043 1.58215L11.8397 2.79004C11.772 2.9661 11.6329 3.10523 11.4568 3.17295L10.2489 3.63753C10.0989 3.6952 10 3.83926 10 3.99992C10 4.16058 10.0989 4.30464 10.2489 4.36231L11.4568 4.82689C11.6329 4.89461 11.772 5.03374 11.8397 5.2098L12.3043 6.41769C12.3619 6.56764 12.506 6.66659 12.6667 6.66659C12.8273 6.66659 12.9714 6.56764 13.0291 6.41769L13.4937 5.2098C13.5613 5.03374 13.7005 4.89461 13.8765 4.82689L15.0845 4.36231C15.2344 4.30464 15.3333 4.16058 15.3333 3.99992C15.3333 3.83926 15.2344 3.6952 15.0845 3.63753L13.8765 3.17295C13.7005 3.10523 13.5613 2.9661 13.4937 2.79004Z" fill="currentColor"/><path d="M8.00131 2.66675L4.00128 2.66675C2.89671 2.66675 2.00128 3.56219 2.00128 4.66675V10.0239C2.00128 11.1285 2.89671 12.0239 4.00128 12.0239H5.7677C5.92432 12.0239 6.07593 12.0791 6.19597 12.1797L7.99845 13.6906L9.82512 12.1772C9.94472 12.0781 10.0951 12.0239 10.2504 12.0239H12.0013C13.1058 12.0239 14.0013 11.1285 14.0013 10.0239V8.67868" stroke="currentColor" stroke-width="1.5" stroke-linecap="round" stroke-linejoin="round"/></svg>